<?xml version="1.0" standalone="no"?>
<!DOCTYPE svg PUBLIC "-//W3C//DTD SVG 20010904//EN"
 "http://www.w3.org/TR/2001/REC-SVG-20010904/DTD/svg10.dtd">
<svg version="1.0" xmlns="http://www.w3.org/2000/svg"
 width="1881.000000pt" height="1881.000000pt" viewBox="0 0 1881.000000 1881.000000"
 preserveAspectRatio="xMidYMid meet">
<metadata>
Created by potrace 1.11, written by Peter Selinger 2001-2013
</metadata>
<g transform="translate(0.000000,1881.000000) scale(0.100000,-0.100000)"
fill="#000000" stroke="none">
<path d="M8635 12799 c-3310 -93 -6252 -823 -7708 -1913 -485 -363 -789 -768
-888 -1185 -59 -246 -35 -553 60 -783 93 -221 331 -546 540 -735 343 -310 901
-675 1321 -864 202 -90 616 -259 636 -259 2 0 -91 49 -208 108 -332 169 -727
413 -1008 623 -126 94 -161 127 -338 321 -92 101 -119 139 -259 373 -33 55
-79 131 -103 170 -47 76 -124 275 -135 347 -18 117 127 247 286 256 98 6 150
-20 249 -125 44 -46 80 -77 80 -69 0 9 5 16 10 16 6 0 10 -5 10 -11 0 -6 15
-25 32 -41 18 -17 55 -73 83 -124 27 -52 79 -136 115 -187 79 -112 299 -336
438 -446 947 -747 2763 -1321 4987 -1575 1265 -145 2627 -180 4125 -106 1058
52 2010 157 2905 320 1257 230 2274 571 2925 983 263 166 524 402 648 585 111
163 188 356 207 522 5 45 14 63 43 95 l37 40 115 2 c128 3 299 -12 344 -30 36
-13 85 -63 92 -93 7 -29 -19 -131 -50 -192 -13 -27 -65 -111 -113 -188 -49
-76 -113 -183 -143 -236 -74 -135 -157 -241 -317 -404 -145 -148 -260 -238
-538 -420 -272 -178 -660 -400 -823 -470 -105 -45 -62 -38 69 12 579 220 1022
462 1512 827 368 273 621 557 792 889 155 298 178 690 60 1018 -178 497 -655
974 -1385 1387 -1484 839 -3876 1398 -6580 1538 -652 34 -1464 43 -2125 24z
m1275 -529 c408 -11 629 -23 995 -51 2314 -178 4390 -768 5645 -1604 252 -168
377 -270 565 -459 165 -166 237 -254 327 -398 51 -82 134 -256 126 -264 -3 -2
-18 -6 -34 -10 -30 -6 -31 -4 -76 88 -95 197 -208 346 -415 549 -308 302 -658
538 -1193 803 -380 189 -740 336 -1189 486 -1636 547 -3342 810 -5256 810
-1948 0 -3718 -235 -5314 -706 -794 -235 -1489 -536 -1956 -847 -467 -312
-757 -647 -856 -989 -7 -27 -19 -48 -26 -48 -17 0 -17 0 12 66 27 60 25 70
-12 76 -22 3 -22 4 16 88 451 1009 2451 1864 5216 2229 1100 146 2337 211
3425 181z m75 -145 c1210 -28 2583 -216 3675 -504 1643 -434 2868 -1098 3357
-1821 153 -225 225 -442 225 -671 0 -146 -4 -159 -45 -159 l-33 0 0 138 c1
192 -32 322 -125 502 -226 434 -738 858 -1489 1234 -1531 765 -3809 1216
-6145 1216 -865 0 -1828 -60 -2658 -164 -149 -19 -180 -20 -184 -9 -3 8 -4 15
-2 17 5 4 529 62 739 81 91 9 179 18 195 20 29 5 451 32 850 56 110 6 380 14
600 18 l400 6 3 28 3 28 197 -6 c108 -2 305 -7 437 -10z m5135 -47 c406 -107
1018 -311 1380 -460 466 -193 842 -386 955 -490 20 -18 -49 13 -153 71 -370
203 -816 388 -1405 581 -239 78 -681 217 -827 260 -41 12 -100 31 -130 43 -45
17 -51 21 -35 28 27 11 79 3 215 -33z m-5320 -638 c1511 -60 2971 -279 4220
-632 720 -203 1332 -455 1416 -582 22 -34 4 -87 -41 -122 -184 -140 -1116
-229 -3820 -364 -905 -45 -1320 -72 -1790 -115 -1143 -106 -1940 -265 -2402
-480 -162 -76 -350 -209 -406 -289 -16 -22 -36 -46 -44 -53 -8 -6 -14 -14 -13
-17 0 -4 -6 -19 -14 -34 -51 -100 -58 -236 -17 -344 49 -129 179 -278 340
-393 l83 -60 -108 -2 c-451 -9 -3427 -33 -3432 -28 -4 4 -8 400 -10 881 l-4
874 74 0 c157 0 1192 20 1543 30 2491 69 4341 218 5289 426 202 45 259 63 338
107 182 102 232 213 138 307 -75 75 -192 121 -501 195 -147 35 -481 100 -594
114 -706 93 -1054 124 -1720 152 -492 20 -1640 12 -2145 -16 -47 -2 -134 -7
-195 -10 -60 -3 -141 -7 -180 -10 -38 -2 -113 -7 -165 -10 -179 -11 -375 -26
-388 -30 -7 -3 -30 2 -52 11 -63 25 -66 77 -7 112 53 32 756 156 1282 226 572
76 1198 131 1785 155 284 12 1255 12 1540 1z m-8190 -2332 c216 -642 1030
-1210 2385 -1663 1288 -431 2896 -683 4750 -746 373 -13 1434 -7 1815 10 1593
72 2846 233 3943 507 1431 357 2329 855 2640 1462 27 54 50 99 52 100 2 2 17
1 34 -3 30 -6 30 -6 16 -44 -68 -195 -276 -456 -510 -643 -216 -173 -508 -346
-817 -484 -519 -231 -1178 -433 -1847 -564 -1105 -218 -2321 -345 -3746 -391
-403 -13 -1683 -7 -1985 10 -980 54 -1684 128 -2465 257 -1260 209 -2208 495
-3007 906 -735 379 -1202 826 -1332 1278 l-24 85 22 7 c39 12 47 3 76 -84z"/>
<path d="M6690 8154 c-91 -18 -266 -53 -390 -78 l-225 -44 473 -1 474 -1 -66
71 c-36 39 -66 75 -66 80 0 13 -17 11 -200 -27z"/>
<path d="M1817 7733 c-14 -14 -5 -32 44 -89 93 -108 123 -136 234 -209 335
-221 904 -493 1338 -639 302 -101 1189 -309 1797 -420 390 -71 968 -157 1285
-191 33 -3 116 -12 185 -20 1801 -203 3868 -192 5655 31 927 115 1738 266
2608 485 378 95 614 178 970 338 439 198 854 439 949 552 24 28 60 72 81 96
39 46 43 66 15 71 -9 2 -244 -73 -524 -167 -749 -250 -1259 -397 -1894 -545
-227 -53 -718 -159 -790 -171 -19 -3 -141 -25 -270 -49 -642 -120 -1554 -243
-2185 -296 -850 -71 -1139 -84 -1910 -84 -763 -1 -1068 13 -1905 83 -647 55
-1548 177 -2225 302 -1134 209 -2021 447 -3278 878 -149 52 -168 56 -180 44z"/>
</g>
</svg>
