<?xml version="1.0" standalone="no"?>
<!DOCTYPE svg PUBLIC "-//W3C//DTD SVG 20010904//EN"
 "http://www.w3.org/TR/2001/REC-SVG-20010904/DTD/svg10.dtd">
<svg version="1.0" xmlns="http://www.w3.org/2000/svg"
 width="80.000000pt" height="80.000000pt" viewBox="0 0 80.000000 80.000000"
 preserveAspectRatio="xMidYMid meet">
<metadata>
Created by potrace 1.11, written by Peter Selinger 2001-2013
</metadata>
<g transform="translate(0.000000,80.000000) scale(0.100000,-0.100000)"
fill="#000000" stroke="none">
<path d="M264 776 c-33 -12 -74 -32 -90 -43 -73 -52 -143 -151 -162 -230 -4
-15 -7 -66 -7 -113 1 -74 5 -94 32 -152 76 -163 247 -255 423 -227 195 31 344
214 334 409 -9 155 -96 280 -241 348 -80 37 -201 40 -289 8z m259 -130 c100
-49 150 -130 151 -246 1 -65 -3 -82 -29 -129 -16 -30 -47 -67 -67 -84 -21 -16
-35 -33 -33 -38 3 -4 0 -11 -6 -15 -8 -4 -9 -3 -5 4 9 15 0 15 -49 -2 -23 -9
-66 -13 -101 -11 -142 7 -253 117 -260 259 -10 215 205 357 399 262z"/>
</g>
</svg>
